<svg id="Layer_2" height="512" viewBox="0 0 128 128" width="512" xmlns="http://www.w3.org/2000/svg" xmlns:xlink="http://www.w3.org/1999/xlink" data-name="Layer 2"><linearGradient id="linear-gradient" gradientUnits="userSpaceOnUse" x1="124.316" x2="6.492" y1="130.659" y2="12.835"><stop offset="0" stop-color="#00acc1"/><stop offset="1" stop-color="#ffee58"/></linearGradient><path d="m91.25 126.25a1.75 1.75 0 0 1 -1.75 1.75h-3.333a1.75 1.75 0 0 1 0-3.5h3.333a1.75 1.75 0 0 1 1.75 1.75zm36.75-45.333v45.333a1.75 1.75 0 0 1 -1.75 1.75h-27.583a1.75 1.75 0 0 1 0-3.5h25.833v-41.833h-121v41.833h9.083v-26.25a1.75 1.75 0 0 1 1.75-1.75h37.334a1.75 1.75 0 0 1 1.75 1.75v26.25h23.583a1.75 1.75 0 0 1 0 3.5h-75.25a1.75 1.75 0 0 1 -1.75-1.75v-54.55a1.751 1.751 0 0 1 1.039-1.6l22.5-10a1.75 1.75 0 0 1 2.461 1.6v7.3l20.039-8.9a1.75 1.75 0 0 1 2.461 1.6v7.3l20.039-8.9a1.75 1.75 0 0 1 2.461 1.6v17.467h5.334l8.322-53.75h-6.761a3.472 3.472 0 0 0 -2.078.684l-5.051 3.729a18.47 18.47 0 0 1 -10.895 3.587 18.218 18.218 0 0 1 -12.971-5.372l-.521-.521a3.478 3.478 0 0 0 -2.47-1.024h-4.644a9.67 9.67 0 0 1 -9.316-6.926 3.478 3.478 0 0 0 -3.349-2.491h-3.73a8.542 8.542 0 1 1 -.002-17.083h23.132a1.75 1.75 0 0 1 0 3.5h-23.132a5.042 5.042 0 1 0 0 10.083h3.732a6.957 6.957 0 0 1 6.7 4.983 6.192 6.192 0 0 0 5.965 4.434h4.644a6.95 6.95 0 0 1 4.949 2.05l.521.521a14.743 14.743 0 0 0 10.493 4.347 14.946 14.946 0 0 0 8.815-2.9l5.05-3.729a7.048 7.048 0 0 1 4.157-1.368h29.689v-4.253a7.02 7.02 0 0 1 2.873-5.653l3-2.189a3.5 3.5 0 0 0 -2.062-6.326h-50.727a1.75 1.75 0 0 1 0-3.5h50.727a7 7 0 0 1 4.126 12.652l-3 2.189a3.511 3.511 0 0 0 -1.436 2.826v6 .04l8.587 55.46h6.584a1.75 1.75 0 0 1 1.745 1.75zm-78.083 26.083h-33.834v3.5h33.834zm-33.834 10.5h33.834v-3.5h-33.834zm0-17.5v3.5h33.834v-3.5zm0 24.5h33.834v-3.5h-33.834zm72.117-99.083-.981 6.333h21.566l-.981-6.333zm-2.2 15h24l-.76-5.167h-22.478zm-82.5 38.75h19v-14.778l-19 8.445zm22.5 0h19v-14.778l-19 8.445zm41.5 0v-14.778l-19 8.445v6.333zm48.625 0-5.458-35.25h-25.334l-5.458 35.25zm-31.208 28.75a1.75 1.75 0 0 1 -1.75 1.75h-20.167a1.75 1.75 0 0 1 -1.75-1.75v-9.667a1.75 1.75 0 0 1 1.75-1.75h20.167a1.75 1.75 0 0 1 1.75 1.75zm-3.5-7.917h-16.667v6.167h16.667zm33.75 9.667h-20.167a1.75 1.75 0 0 1 -1.75-1.75v-9.667a1.75 1.75 0 0 1 1.75-1.75h20.167a1.75 1.75 0 0 1 1.75 1.75v9.667a1.75 1.75 0 0 1 -1.75 1.75zm-1.75-9.667h-16.667v6.167h16.667z" fill="url(#linear-gradient)"/></svg>