<svg id="Layer_1" height="512" viewBox="0 0 128 128" width="512" xmlns="http://www.w3.org/2000/svg" data-name="Layer 1"><path d="m102.645 73.31h-17.308l2.686-48.045h11.937z" fill="#f9502e"/><path d="m100.291 31.196-.331-5.931h-11.937l-.332 5.931z" fill="#ffd92d"/><path d="m49.377 113h-29.245v-40.734l29.245-10.296z" fill="#e1d8fa"/><path d="m78.623 113h-29.246v-40.734l29.246-10.296z" fill="#00d6de"/><path d="m107.868 113h-29.245v-40.734l29.245-10.296z" fill="#e1d8fa"/><path d="m20.132 79.726h22.531v6.267h-22.531z" fill="#00d6de"/><path d="m78.623 79.726h22.531v6.267h-22.531z" fill="#00d6de"/><path d="m49.377 79.726h22.531v6.267h-22.531z" fill="#f1f1fb"/><path d="m56.465 96.139h15.07v16.861h-15.07z" fill="#f1f1fb"/><path d="m113 111.25h-98a1.75 1.75 0 0 0 0 3.5h98a1.75 1.75 0 0 0 0-3.5z" fill="#25509e"/><g fill="#00006e"><path d="m31.4 70.05a1.748 1.748 0 0 0 .583-.1l.479-.169a1.75 1.75 0 0 0 -1.166-3.3l-.479.169a1.751 1.751 0 0 0 .583 3.4z"/><path d="m113 111.25h-3.382v-49.28a1.75 1.75 0 0 0 -2.331-1.651l-19.862 6.993 1.921-34.367h9.29l1.323 23.662a1.75 1.75 0 1 0 3.494-.2l-1.746-31.245a1.749 1.749 0 0 0 -1.747-1.652h-11.938a1.75 1.75 0 0 0 -1.747 1.652l-2.426 43.4-3.476 1.238v-7.83a1.75 1.75 0 0 0 -2.331-1.651l-22.158 7.8a1.75 1.75 0 1 0 1.162 3.3l19.827-6.98v41.128a1.75 1.75 0 0 0 3.5 0v-24.09h19.027v2.766h-13.777a1.75 1.75 0 1 0 0 3.5h15.53a1.749 1.749 0 0 0 1.75-1.75v-6.266a1.749 1.749 0 0 0 -1.75-1.75h-20.78v-4.472l25.745-9.064v46.809h-6.18a1.75 1.75 0 1 0 0 3.5h13.062a1.75 1.75 0 0 0 0-3.5zm-14.695-84.235.136 2.43h-8.9l.136-2.43z"/><path d="m94.125 111.25h-.88a1.75 1.75 0 0 0 0 3.5h.88a1.75 1.75 0 0 0 0-3.5z"/><path d="m86.5 111.25h-13.215v-15.11a1.749 1.749 0 0 0 -1.75-1.75h-15.07a1.749 1.749 0 0 0 -1.75 1.75v9.429a1.75 1.75 0 0 0 3.5 0v-7.679h11.57v13.36h-18.658v-29.773h19.031v2.766h-13.781a1.75 1.75 0 0 0 0 3.5h15.531a1.749 1.749 0 0 0 1.75-1.75v-6.266a1.749 1.749 0 0 0 -1.75-1.75h-20.781v-16.007a1.749 1.749 0 0 0 -2.327-1.651l-11.874 4.181a1.75 1.75 0 1 0 1.162 3.3l9.539-3.359v46.809h-25.745v-29.773h19.031v2.766h-13.781a1.75 1.75 0 0 0 0 3.5h15.531a1.749 1.749 0 0 0 1.75-1.75v-6.266a1.749 1.749 0 0 0 -1.75-1.75h-20.781v-4.472l4.494-1.582a1.75 1.75 0 0 0 -1.162-3.3l-5.663 1.993a1.75 1.75 0 0 0 -1.169 1.651v38.983h-3.382a1.75 1.75 0 0 0 0 3.5h71.5a1.75 1.75 0 0 0 0-3.5z"/><path d="m68.771 21.621a11.45 11.45 0 0 0 5.61 1.7c.227 0 .461-.009.7-.026 3.441-.263 5.663-2.19 7.623-3.89a12.967 12.967 0 0 1 3.296-2.335 5.36 5.36 0 0 1 4.67.5 3.538 3.538 0 0 1 1.571 3.13 1.75 1.75 0 1 0 3.5 0 7.028 7.028 0 0 0 -3.121-6.03 8.827 8.827 0 0 0 -7.944-.84 15.68 15.68 0 0 0 -4.266 2.935c-1.7 1.475-3.308 2.869-5.6 3.044a7.536 7.536 0 0 1 -4.391-1.274 1.75 1.75 0 0 0 -1.651 3.086z"/><path d="m63.411 20.026h.11c.216-.013.427-.013.626-.011a1.75 1.75 0 1 0 .1-3.5q-.453-.014-.937.015a1.75 1.75 0 0 0 .105 3.5z"/><path d="m51.032 23.673a17.6 17.6 0 0 0 7.617-2.153 1.75 1.75 0 0 0 -1.549-3.139c-5.227 2.578-7.928 1.978-8.652.679a1.881 1.881 0 0 1 .479-2.376 1.75 1.75 0 0 0 -1.856-2.967 5.318 5.318 0 0 0 -1.679 7.048c.491.879 2.019 2.908 5.64 2.908z"/></g></svg>